# xmcd
#
# Track frame offsets: 
#        193
#        11535
#        27773
#        40843
#        52293
#        65548
#        77443
#        89268
#        98368
#        109168
#        119518
#        132643
#        146075
#        148968
#        161058
#        175380
#        192168
#        203443
#        214093
#        224293
#        232468
#        244080
#        255230
#        268468
#        278568
#        287893
#
# Disc length: 3993 seconds
#
# Revision: 4
# Processed by: cddbd v1.5.2PL0 Copyright (c) Steve Scherf et al.
# Submitted via: ExactAudioCopy v1.0b3
#
DISCID=900f971a
DTITLE=George Jones - Live At Dancetown U.S.A.
DYEAR=1992
DGENRE=Country
TTITLE0=The Jones Boys - Untitled Instrumental
TTITLE1=Don Adams - One More Time
TTITLE2=White Lightning
TTITLE3=Something I Dreamed
TTITLE4=Aching, Breaking Heart
TTITLE5=George Jones and Don Adams - We Must Have Been Out of Our Mind
TTITLE5=s
TTITLE6=The Window Up Above
TTITLE7=Bony Maronie
TTITLE8=She Thinks I Still Care
TTITLE9=The Jones Boy (with Buddy Emmons) - Rio City Chimes
TTITLE10=Accidentally On Purpose
TTITLE11=Who Shot Sam
TTITLE12=The Jones Boys - Intermission Riff
TTITLE13=The Jones Boys - Untitled Instrumental
TTITLE14=Don Adams - Please Talk to My Heart
TTITLE15=Don Adams - Sing a Sad Song
TTITLE16=Buddy Emmons - Panhandle Rag
TTITLE17=Don Adams - Act Naturally
TTITLE18=Ragged But Right
TTITLE19=Poor Man's Blues
TTITLE20=Tender Years
TTITLE21=Where Does a Little Tear Come From
TTITLE22=George Jones (with Rufus Thibideaux) - Jole Blon
TTITLE23=Big Harlan Taylor
TTITLE24=She's Lonesome Again
TTITLE25=The Race is On
EXTD=
EXTT0=
EXTT1=
EXTT2=
EXTT3=
EXTT4=
EXTT5=
EXTT6=
EXTT7=
EXTT8=
EXTT9=
EXTT10=
EXTT11=
EXTT12=
EXTT13=
EXTT14=
EXTT15=
EXTT16=
EXTT17=
EXTT18=
EXTT19=
EXTT20=
EXTT21=
EXTT22=
EXTT23=
EXTT24=
EXTT25=
PLAYORDER=
